<svg width="339" height="181" viewBox="0 0 339 181" fill="none" xmlns="http://www.w3.org/2000/svg">
<path d="M90.2104 180.467C87.7518 180.457 85.3978 179.472 83.6645 177.728L2.69999 96.7637C0.970664 95.0241 0 92.6708 0 90.2179C0 87.7649 0.970664 85.4116 2.69999 83.672L83.6645 2.70746C84.5333 1.8448 85.5634 1.1617 86.6962 0.69716C87.829 0.232623 89.0421 -0.00425312 90.2664 5.77991e-05C91.4907 0.00436872 92.7022 0.249787 93.8317 0.72229C94.9611 1.19479 95.9864 1.88513 96.8491 2.75389C97.7118 3.62265 98.3949 4.65282 98.8594 5.78558C99.3239 6.91833 99.5608 8.13149 99.5565 9.35579C99.5522 10.5801 99.3068 11.7916 98.8343 12.921C98.3618 14.0505 97.6714 15.0758 96.8027 15.9385L22.5233 90.2179L96.8027 164.497C98.1121 165.796 99.0052 167.455 99.3679 169.263C99.7307 171.072 99.5467 172.947 98.8395 174.65C98.1323 176.353 96.9339 177.807 95.3971 178.827C93.8602 179.846 92.0546 180.385 90.2104 180.374V180.467Z" fill="#FFD839"/>
<path d="M90.2104 180.467C87.7518 180.457 85.3978 179.472 83.6645 177.728L2.69999 96.7637C0.970664 95.0241 0 92.6708 0 90.2179C0 87.7649 0.970664 85.4116 2.69999 83.672L83.6645 2.70746C84.5333 1.8448 85.5634 1.1617 86.6962 0.69716C87.829 0.232623 89.0421 -0.00425312 90.2664 5.77991e-05C91.4907 0.00436872 92.7022 0.249787 93.8317 0.72229C94.9611 1.19479 95.9864 1.88513 96.8491 2.75389C97.7118 3.62265 98.3949 4.65282 98.8594 5.78558C99.3239 6.91833 99.5608 8.13149 99.5565 9.35579C99.5522 10.5801 99.3068 11.7916 98.8343 12.921C98.3618 14.0505 97.6714 15.0758 96.8027 15.9385L22.5233 90.2179L96.8027 164.497C98.1121 165.796 99.0052 167.455 99.3679 169.263C99.7307 171.072 99.5467 172.947 98.8395 174.65C98.1323 176.353 96.9339 177.807 95.3971 178.827C93.8602 179.846 92.0546 180.385 90.2104 180.374V180.467Z" fill="url(#paint0_linear)"/>
<path d="M329.715 99.5022H9.38514C6.92263 99.5022 4.56097 98.524 2.81971 96.7827C1.07845 95.0415 0.10022 92.6798 0.10022 90.2173C0.10022 87.7548 1.07845 85.3931 2.81971 83.6519C4.56097 81.9106 6.92263 80.9324 9.38514 80.9324H329.715C332.178 80.9324 334.539 81.9106 336.28 83.6519C338.022 85.3931 339 87.7548 339 90.2173C339 92.6798 338.022 95.0415 336.28 96.7827C334.539 98.524 332.178 99.5022 329.715 99.5022Z" fill="#FFDB48"/>
<path d="M329.715 99.5022H9.38514C6.92263 99.5022 4.56097 98.524 2.81971 96.7827C1.07845 95.0415 0.10022 92.6798 0.10022 90.2173C0.10022 87.7548 1.07845 85.3931 2.81971 83.6519C4.56097 81.9106 6.92263 80.9324 9.38514 80.9324H329.715C332.178 80.9324 334.539 81.9106 336.28 83.6519C338.022 85.3931 339 87.7548 339 90.2173C339 92.6798 338.022 95.0415 336.28 96.7827C334.539 98.524 332.178 99.5022 329.715 99.5022Z" fill="url(#paint1_linear)"/>
<defs>
<linearGradient id="paint0_linear" x1="49.7783" y1="0" x2="49.7783" y2="180.467" gradientUnits="userSpaceOnUse">
<stop stop-color="#F6E4A3"/>
<stop offset="1" stop-color="white" stop-opacity="0"/>
</linearGradient>
<linearGradient id="paint1_linear" x1="158" y1="-45" x2="203" y2="119" gradientUnits="userSpaceOnUse">
<stop stop-color="#F6E4A3"/>
<stop offset="1" stop-color="white" stop-opacity="0"/>
</linearGradient>
</defs>
</svg>
