<svg width="339" height="181" viewBox="0 0 339 181" fill="none" xmlns="http://www.w3.org/2000/svg">
<path d="M248.79 -3.10669e-05C251.248 0.0103344 253.602 0.995387 255.335 2.73904L336.3 83.7036C338.029 85.4432 339 87.7965 339 90.2494C339 92.7024 338.029 95.0556 336.3 96.7953L255.335 177.76C254.467 178.622 253.437 179.306 252.304 179.77C251.171 180.235 249.958 180.472 248.734 180.467C247.509 180.463 246.298 180.218 245.168 179.745C244.039 179.273 243.014 178.582 242.151 177.713C241.288 176.845 240.605 175.814 240.141 174.682C239.676 173.549 239.439 172.336 239.443 171.112C239.448 169.887 239.693 168.676 240.166 167.546C240.638 166.417 241.329 165.391 242.197 164.529L316.477 90.2494L242.197 15.97C240.888 14.6714 239.995 13.0121 239.632 11.2039C239.269 9.39569 239.453 7.52041 240.16 5.81714C240.868 4.11388 242.066 2.65983 243.603 1.64034C245.14 0.620843 246.945 0.0821132 248.79 0.092838L248.79 -3.10669e-05Z" fill="#FFD839"/>
<path d="M248.79 -3.10669e-05C251.248 0.0103344 253.602 0.995387 255.335 2.73904L336.3 83.7036C338.029 85.4432 339 87.7965 339 90.2494C339 92.7024 338.029 95.0556 336.3 96.7953L255.335 177.76C254.467 178.622 253.437 179.306 252.304 179.77C251.171 180.235 249.958 180.472 248.734 180.467C247.509 180.463 246.298 180.218 245.168 179.745C244.039 179.273 243.014 178.582 242.151 177.713C241.288 176.845 240.605 175.814 240.141 174.682C239.676 173.549 239.439 172.336 239.443 171.112C239.448 169.887 239.693 168.676 240.166 167.546C240.638 166.417 241.329 165.391 242.197 164.529L316.477 90.2494L242.197 15.97C240.888 14.6714 239.995 13.0121 239.632 11.2039C239.269 9.39569 239.453 7.52041 240.16 5.81714C240.868 4.11388 242.066 2.65983 243.603 1.64034C245.14 0.620843 246.945 0.0821132 248.79 0.092838L248.79 -3.10669e-05Z" fill="url(#paint0_linear)"/>
<path d="M9.28499 80.9651L329.615 80.9651C332.077 80.9651 334.439 81.9433 336.18 83.6846C337.922 85.4258 338.9 87.7875 338.9 90.25C338.9 92.7125 337.922 95.0742 336.18 96.8154C334.439 98.5567 332.077 99.5349 329.615 99.5349L9.28499 99.5349C6.82248 99.5349 4.46082 98.5567 2.71955 96.8155C0.978293 95.0742 6.99755e-05 92.7125 6.97602e-05 90.25C6.95449e-05 87.7875 0.978293 85.4258 2.71955 83.6846C4.46081 81.9433 6.82248 80.9651 9.28499 80.9651Z" fill="#FFDB48"/>
<path d="M9.28499 80.9651L329.615 80.9651C332.077 80.9651 334.439 81.9433 336.18 83.6846C337.922 85.4258 338.9 87.7875 338.9 90.25C338.9 92.7125 337.922 95.0742 336.18 96.8154C334.439 98.5567 332.077 99.5349 329.615 99.5349L9.28499 99.5349C6.82248 99.5349 4.46082 98.5567 2.71955 96.8155C0.978293 95.0742 6.99755e-05 92.7125 6.97602e-05 90.25C6.95449e-05 87.7875 0.978293 85.4258 2.71955 83.6846C4.46081 81.9433 6.82248 80.9651 9.28499 80.9651Z" fill="url(#paint1_linear)"/>
<defs>
<linearGradient id="paint0_linear" x1="289.222" y1="180.467" x2="289.222" y2="-4.14246e-05" gradientUnits="userSpaceOnUse">
<stop stop-color="#F6E4A3"/>
<stop offset="1" stop-color="white" stop-opacity="0"/>
</linearGradient>
<linearGradient id="paint1_linear" x1="181" y1="225.467" x2="136" y2="61.4673" gradientUnits="userSpaceOnUse">
<stop stop-color="#F6E4A3"/>
<stop offset="1" stop-color="white" stop-opacity="0"/>
</linearGradient>
</defs>
</svg>
